<mxfile host="65bd71144e">
    <diagram id="Un_Z-Ee4vAJJ7-9JeIwL" name="Страница 1">
        <mxGraphModel dx="756" dy="497" grid="1" gridSize="10" guides="1" tooltips="1" connect="1" arrows="1" fold="1" page="1" pageScale="1" pageWidth="827" pageHeight="1169" math="0" shadow="0">
            <root>
                <mxCell id="0"/>
                <mxCell id="1" parent="0"/>
                <mxCell id="2" value="&lt;h1 style=&quot;font-size: 16px&quot;&gt;&lt;font style=&quot;font-size: 16px&quot;&gt;Справочник&lt;/font&gt;&lt;/h1&gt;&lt;div&gt;&lt;font style=&quot;font-size: 16px&quot;&gt;db - csv (список)&lt;/font&gt;&lt;/div&gt;&lt;div&gt;&lt;font style=&quot;font-size: 16px&quot;&gt;&lt;br&gt;&lt;/font&gt;&lt;/div&gt;&lt;div&gt;&lt;font style=&quot;font-size: 16px&quot;&gt;db - json (словарь)&amp;nbsp;&lt;/font&gt;&lt;/div&gt;&lt;pre style=&quot;color: rgb(169 , 183 , 198) ; font-family: &amp;#34;jetbrains mono&amp;#34; , monospace&quot;&gt;&lt;span style=&quot;color: #cc7832&quot;&gt;*&lt;/span&gt;Фамилия_1&lt;span style=&quot;color: #cc7832&quot;&gt;*&lt;br&gt;&lt;/span&gt;&lt;span style=&quot;color: #cc7832&quot;&gt;&lt;br&gt;&lt;/span&gt;&lt;span style=&quot;color: #cc7832&quot;&gt;*&lt;/span&gt;Имя_1&lt;span style=&quot;color: #cc7832&quot;&gt;*&lt;br&gt;&lt;/span&gt;&lt;span style=&quot;color: #cc7832&quot;&gt;&lt;br&gt;&lt;/span&gt;&lt;span style=&quot;color: #cc7832&quot;&gt;*&lt;/span&gt;Телефон_1&lt;span style=&quot;color: #cc7832&quot;&gt;*&lt;br&gt;&lt;/span&gt;&lt;font style=&quot;color: rgb(240 , 240 , 240) ; font-family: &amp;#34;helvetica&amp;#34; ; white-space: normal ; font-size: 16px&quot;&gt;&lt;span style=&quot;font-family: &amp;#34;jetbrains mono&amp;#34; , monospace ; font-size: 12px ; color: rgb(204 , 120 , 50)&quot;&gt;*&lt;/span&gt;&lt;span style=&quot;color: rgb(169 , 183 , 198) ; font-family: &amp;#34;jetbrains mono&amp;#34; , monospace ; font-size: 12px&quot;&gt;Описание_1&lt;/span&gt;&lt;span style=&quot;font-family: &amp;#34;jetbrains mono&amp;#34; , monospace ; font-size: 12px ; color: rgb(204 , 120 , 50)&quot;&gt;*&lt;/span&gt;&lt;/font&gt;&lt;span style=&quot;white-space: normal ; color: rgb(204 , 120 , 50)&quot;&gt;*&lt;/span&gt;&lt;span style=&quot;white-space: normal&quot;&gt;Фамилия_1&lt;/span&gt;&lt;span style=&quot;white-space: normal ; color: rgb(204 , 120 , 50)&quot;&gt;*&lt;/span&gt;&lt;/pre&gt;&lt;div&gt;&lt;font style=&quot;font-size: 16px&quot;&gt;1 поиск (search) Артур&lt;/font&gt;&lt;/div&gt;&lt;div&gt;&lt;font style=&quot;font-size: 16px&quot;&gt;2 запись (create) Сергей&lt;/font&gt;&lt;/div&gt;&lt;div&gt;&lt;font style=&quot;font-size: 16px&quot;&gt;3 удаление (delete) Вадим&lt;/font&gt;&lt;/div&gt;&lt;div&gt;&lt;font style=&quot;font-size: 16px&quot;&gt;4 импорт (Modol_import) Андрей&lt;/font&gt;&lt;/div&gt;&lt;div&gt;&lt;font style=&quot;font-size: 16px&quot;&gt;5 экспорт (modol_export) Ольга&lt;/font&gt;&lt;/div&gt;&lt;div&gt;&lt;font style=&quot;font-size: 16px&quot;&gt;6 проверки (check) Алена&lt;/font&gt;&lt;/div&gt;&lt;div&gt;&lt;font style=&quot;font-size: 16px&quot;&gt;7&lt;/font&gt;&lt;span style=&quot;font-size: 16px&quot;&gt;&amp;nbsp;controller.py Вера&lt;/span&gt;&lt;/div&gt;&lt;p style=&quot;font-size: 16px&quot;&gt;&lt;font style=&quot;font-size: 16px&quot;&gt;&amp;nbsp;main.py&amp;nbsp;&lt;/font&gt;&lt;/p&gt;&lt;p style=&quot;font-size: 16px&quot;&gt;&lt;font style=&quot;font-size: 16px&quot;&gt;&amp;nbsp;ui.py Все в месте&lt;/font&gt;&lt;/p&gt;&lt;p style=&quot;font-size: 16px&quot;&gt;&lt;br&gt;&lt;/p&gt;&lt;p style=&quot;font-size: 16px&quot;&gt;(ззаметки:&amp;nbsp; имя фамилия могут быть пустые,&amp;nbsp; длина в вода&amp;nbsp; не привышает 20 символов)&lt;/p&gt;" style="text;html=1;strokeColor=#001DBC;fillColor=#0050ef;spacing=5;spacingTop=-20;whiteSpace=wrap;overflow=hidden;rounded=0;fontColor=#ffffff;" vertex="1" parent="1">
                    <mxGeometry x="20" y="20" width="740" height="520" as="geometry"/>
                </mxCell>
                <mxCell id="3" value="" style="rounded=1;whiteSpace=wrap;html=1;fontSize=16;" vertex="1" parent="1">
                    <mxGeometry x="70" y="600" width="120" height="60" as="geometry"/>
                </mxCell>
                <mxCell id="4" value="" style="rounded=1;whiteSpace=wrap;html=1;fontSize=16;" vertex="1" parent="1">
                    <mxGeometry x="230" y="600" width="120" height="60" as="geometry"/>
                </mxCell>
                <mxCell id="5" value="" style="rounded=1;whiteSpace=wrap;html=1;fontSize=16;" vertex="1" parent="1">
                    <mxGeometry x="400" y="600" width="120" height="60" as="geometry"/>
                </mxCell>
                <mxCell id="6" value="" style="rounded=1;whiteSpace=wrap;html=1;fontSize=16;" vertex="1" parent="1">
                    <mxGeometry x="560" y="600" width="120" height="60" as="geometry"/>
                </mxCell>
                <mxCell id="7" value="" style="rounded=1;whiteSpace=wrap;html=1;fontSize=16;" vertex="1" parent="1">
                    <mxGeometry x="70" y="700" width="120" height="60" as="geometry"/>
                </mxCell>
            </root>
        </mxGraphModel>
    </diagram>
</mxfile>